<?xml version="1.0" encoding="UTF-8"?>
<svg version="1.1" xmlns="http://www.w3.org/2000/svg" width="85" height="85">
<path d="M0 0 C-4.87178184 5.86264434 -10.10743702 11.26845928 -15.4921875 16.66015625 C-16.84934372 18.02230507 -16.84934372 18.02230507 -18.23391724 19.41197205 C-20.14002073 21.32402545 -22.04814085 23.23403974 -23.95751953 25.14282227 C-26.38537665 27.57057773 -28.80627278 30.00514809 -31.22546196 32.4415369 C-33.55982723 34.78978839 -35.90146047 37.13074626 -38.2421875 39.47265625 C-39.53006668 40.77131371 -39.53006668 40.77131371 -40.84396362 42.09620667 C-45.61927686 46.85362266 -50.46044674 51.1511021 -56 55 C-54.38019603 51.65175744 -52.50140187 48.8458348 -50.25 45.875 C-49.67487671 45.11425171 -49.67487671 45.11425171 -49.08813477 44.33813477 C-44.82061294 38.71695004 -40.46040354 33.16703292 -36.11572266 27.60546875 C-31.61132235 21.82484224 -27.26009154 15.96412816 -23 10 C-28.94 9.67 -34.88 9.34 -41 9 C-41.66 10.32 -42.32 11.64 -43 13 C-44.49377563 14.62859293 -46.03988064 16.21016976 -47.625 17.75 C-48.44226563 18.54921875 -49.25953125 19.3484375 -50.1015625 20.171875 C-50.72804688 20.77515625 -51.35453125 21.3784375 -52 22 C-52.33 21.34 -52.66 20.68 -53 20 C-52.19555664 17.93701172 -52.19555664 17.93701172 -50.91015625 15.4296875 C-50.45576172 14.53378906 -50.00136719 13.63789063 -49.53320312 12.71484375 C-49.04787109 11.77769531 -48.56253906 10.84054688 -48.0625 9.875 C-47.58103516 8.93011719 -47.09957031 7.98523437 -46.60351562 7.01171875 C-45.40938905 4.67075774 -44.20797401 2.33383736 -43 0 C-28.64576412 -0.99484803 -14.32511681 -1.82678271 0 0 Z " fill="#FCFBFC" transform="translate(66,16)"/>
<path d="M0 0 C0 3.41998622 -0.38248849 3.82762199 -2.4921875 6.3359375 C-3.02730957 6.98127441 -3.56243164 7.62661133 -4.11376953 8.29150391 C-4.69497559 8.97905762 -5.27618164 9.66661133 -5.875 10.375 C-7.07948624 11.82699687 -8.28259679 13.28013597 -9.484375 14.734375 C-10.08314453 15.45689453 -10.68191406 16.17941406 -11.29882812 16.92382812 C-14.464242 20.78701406 -17.47095018 24.76763535 -20.5 28.73828125 C-24.93341691 34.54369004 -29.47689065 40.26442218 -34 46 C-22.74343213 47.53419419 -22.74343213 47.53419419 -12.578125 43.7734375 C-10.15976593 41.29217314 -8.0059719 38.82247302 -6 36 C-5.67 36.66 -5.34 37.32 -5 38 C-5.71264648 39.97119141 -5.71264648 39.97119141 -6.87109375 42.3515625 C-7.23904053 43.11807129 -7.6069873 43.88458008 -7.98608398 44.67431641 C-8.70453491 46.13490479 -8.70453491 46.13490479 -9.4375 47.625 C-10.943125 50.71875 -12.44875 53.8125 -14 57 C-27.86 57 -41.72 57 -56 57 C-52.28641428 52.66748333 -48.73719114 48.61349268 -44.72900391 44.61547852 C-44.24044922 44.1267778 -43.75189453 43.63807709 -43.24853516 43.13456726 C-41.66024061 41.54695997 -40.06845249 39.96290763 -38.4765625 38.37890625 C-37.36390615 37.26811831 -36.25147284 36.1571069 -35.13925171 35.04588318 C-32.2316873 32.14211066 -29.32113095 29.24135564 -26.40991211 26.34124756 C-23.43159571 23.37321737 -20.45615894 20.40230338 -17.48046875 17.43164062 C-11.65643877 11.61828917 -5.8292405 5.80812666 0 0 Z " fill="#FCFAFC" transform="translate(74,13)"/>
<path d="M0 0 C0 3.54404336 -0.60989485 4.10267905 -2.875 6.6875 C-3.40867187 7.31011719 -3.94234375 7.93273437 -4.4921875 8.57421875 C-6 10 -6 10 -8 10 C-6.34908222 5.70761377 -3.26245434 3.1206085 0 0 Z " fill="#FEFBFE" transform="translate(74,13)"/>
<path d="M0 0 C0 0.99 0 1.98 0 3 C-0.66 2.67 -1.32 2.34 -2 2 C-1.34 1.34 -0.68 0.68 0 0 Z " fill="#ECECF4" transform="translate(8,72)"/>
<path d="" fill="#FFFDFF" transform="translate(0,0)"/>
<path d="" fill="#FFFBFF" transform="translate(0,0)"/>
<path d="" fill="#FFFFFF" transform="translate(0,0)"/>
</svg>
